<?xml version="1.0" standalone="no"?>
<!DOCTYPE svg PUBLIC "-//W3C//DTD SVG 20010904//EN"
 "http://www.w3.org/TR/2001/REC-SVG-20010904/DTD/svg10.dtd">
<svg version="1.0" xmlns="http://www.w3.org/2000/svg"
 width="300.000000pt" height="533.000000pt" viewBox="0 0 300.000000 533.000000"
 preserveAspectRatio="xMidYMid meet">
<metadata>
Created by potrace 1.10, written by Peter Selinger 2001-2011
</metadata>
<g transform="translate(0.000000,533.000000) scale(0.100000,-0.100000)"
fill="#000000" stroke="none">
<path d="M1292 3850 c-610 -64 -1073 -610 -1038 -1225 5 -101 42 -290 65 -332
5 -10 19 -43 31 -73 50 -124 208 -342 294 -405 15 -11 43 -34 63 -51 49 -44
178 -119 265 -155 266 -110 575 -116 853 -16 71 26 219 107 288 158 170 128
347 357 347 451 0 28 -6 22 -51 -53 -170 -284 -389 -458 -683 -543 -377 -110
-800 -5 -1085 268 -212 205 -331 461 -348 751 -10 195 25 371 111 550 234 487
758 732 1298 606 43 -10 78 -16 78 -12 -1 14 -50 40 -101 55 -57 16 -226 37
-281 35 -18 -1 -66 -5 -106 -9z"/>
<path d="M1535 3753 c-251 -53 -407 -134 -558 -292 -301 -315 -352 -790 -125
-1162 68 -111 206 -249 317 -317 217 -133 496 -175 741 -113 177 45 392 178
483 300 65 85 32 77 -67 -16 -269 -254 -614 -334 -953 -222 -38 12 -77 28 -88
35 -11 8 -27 14 -36 14 -10 0 -19 3 -21 8 -1 4 -32 26 -68 49 -189 124 -328
322 -386 553 -29 113 -26 326 5 440 97 356 383 617 741 676 47 8 111 14 143
14 65 0 109 16 86 31 -14 9 -176 11 -214 2z"/>
<path d="M2192 3590 c-11 -17 -32 -92 -47 -166 -16 -74 -33 -142 -39 -150 -8
-11 -52 -19 -156 -30 -164 -16 -198 -26 -206 -60 -9 -36 -1 -43 151 -130 114
-64 145 -87 145 -105 0 -10 -13 -80 -30 -154 -16 -74 -30 -143 -30 -153 0 -28
35 -55 62 -48 13 3 76 53 141 111 115 103 133 114 153 96 11 -12 242 -144 267
-154 21 -8 57 24 57 52 0 10 -27 81 -60 157 -33 76 -60 145 -60 154 0 9 54 64
120 124 65 59 122 117 126 128 3 12 -1 27 -12 39 -20 22 -58 24 -179 10 -44
-6 -104 -12 -134 -14 l-53 -5 -31 72 c-110 249 -145 292 -185 226z m48 -10 c0
-5 31 -80 70 -167 50 -115 74 -159 88 -161 10 -2 97 6 192 17 96 11 176 19
177 17 2 -1 -62 -60 -142 -131 -80 -71 -145 -129 -145 -130 0 -3 129 -285 144
-313 22 -42 15 -50 -21 -25 -39 27 -291 173 -299 173 -9 0 -118 -96 -216 -189
-43 -40 -78 -70 -78 -66 0 4 19 91 41 193 36 162 40 187 26 196 -8 6 -82 49
-165 96 -83 47 -151 88 -152 91 0 3 66 11 148 18 81 7 167 16 191 20 l44 6 32
150 c18 83 36 167 39 188 4 21 11 35 17 32 5 -4 9 -10 9 -15z"/>
</g>
</svg>
